<?xml version="1.0" encoding="utf-8"?>
<!-- Generator: Adobe Illustrator 23.0.1, SVG Export Plug-In . SVG Version: 6.00 Build 0)  -->
<svg version="1.1" id="Layer_1" xmlns="http://www.w3.org/2000/svg" xmlns:xlink="http://www.w3.org/1999/xlink" x="0px" y="0px"
	 viewBox="0 0 223 110.6" style="enable-background:new 0 0 223 110.6;" xml:space="preserve">
<style type="text/css">
	.st0{fill:url(#SVGID_1_);}
	.st1{fill:#808080;}
	.st2{fill:url(#SVGID_2_);}
	.st3{fill:url(#SVGID_3_);}
	.st4{fill:url(#SVGID_4_);}
	.st5{fill:#FFFFFF;}
	.st6{enable-background:new    ;}
	.st7{fill:url(#SVGID_5_);}
	.st8{fill:url(#SVGID_6_);}
</style>
<g>
	<g>
		
			<linearGradient id="SVGID_1_" gradientUnits="userSpaceOnUse" x1="3828.7292" y1="-4230.4995" x2="3828.4438" y2="-4197.1099" gradientTransform="matrix(0.7071 -0.7071 0.8713 0.5429 1024.368 5036.7983)">
			<stop  offset="0.111" style="stop-color:#FFEDBA"/>
			<stop  offset="0.6371" style="stop-color:#A29258"/>
			<stop  offset="0.9805" style="stop-color:#554700"/>
		</linearGradient>
		<path class="st0" d="M74.2,20.3c0.6-0.9,1.2-1.8,1.8-2.7c-5.5,1.3-10.1,3.9-12.2,8.3c-5.7,11.7,13.5,43.6,0.9,53.4c0,0,0,0,0,0
			c9.4-2.6,13.1-9.6,11.9-17.7c-1.3-8.9-5.6-17.5-6.1-24.3C70.4,37.4,69.8,27.3,74.2,20.3z"/>
		<path class="st1" d="M70.5,37.1c0,0.1,0,0.2,0,0.2C70.5,37.2,70.5,37.2,70.5,37.1z"/>
		
			<linearGradient id="SVGID_2_" gradientUnits="userSpaceOnUse" x1="94.2195" y1="-783.2595" x2="83.3591" y2="-815.8616" gradientTransform="matrix(1 0 0 1 0 830)">
			<stop  offset="0.111" style="stop-color:#FFEDBA"/>
			<stop  offset="0.6371" style="stop-color:#A29258"/>
			<stop  offset="0.9805" style="stop-color:#554700"/>
		</linearGradient>
		<path class="st2" d="M102.3,21.2c-1.5-0.9-3.2-1.7-5-2.3c-6.1-2.1-13.6-2.8-20.1-1.5c-0.4,0.1-0.7,0.1-1.1,0.2
			c-0.7,0.9-1.2,1.8-1.8,2.7c-4.4,7-3.8,17-3.7,16.9c0,0,0-0.1,0-0.2c-0.2-2.6,0-4.9,0.8-6.7c0.1-0.2,0.2-0.5,0.3-0.7
			c0.2-0.4,0.5-0.7,0.8-1c1.9-1.9,5.6-3,9.8-3.2c3.9-0.2,8.3,0.2,11.8,1.6c3.9,1.5,6.7,4,7.1,7.7c0.6,5.9-16.6,12.6-18.1,13.1
			c0,0,0,0,0,0c1.5-0.3,14.2-2.1,21.3-8c1.4-1.1,2.6-2.5,3.4-3.9c0.7-1.3,1.2-2.7,1.3-4.2C109.3,27.3,106.5,23.8,102.3,21.2z"/>
		
			<linearGradient id="SVGID_3_" gradientUnits="userSpaceOnUse" x1="3813.3301" y1="-4224.9155" x2="3822.4619" y2="-4198.9463" gradientTransform="matrix(0.7071 -0.7071 0.8713 0.5429 1024.368 5036.7983)">
			<stop  offset="0.111" style="stop-color:#FFEDBA"/>
			<stop  offset="0.6371" style="stop-color:#A29258"/>
			<stop  offset="0.9805" style="stop-color:#554700"/>
		</linearGradient>
		<path class="st3" d="M53.8,79.6c-0.6,0.9-1.2,1.8-1.8,2.7c5.5-1.3,10.1-3.9,12.2-8.3c5.7-11.7-13.5-43.6-0.9-53.4c0,0,0,0,0,0
			c-9.4,2.6-13.1,9.6-11.9,17.7c1.3,8.9,5.6,17.5,6.1,24.3C57.6,62.5,58.2,72.6,53.8,79.6z"/>
		<path class="st1" d="M57.5,62.8c0-0.1,0-0.2,0-0.2C57.5,62.7,57.5,62.7,57.5,62.8z"/>
		
			<linearGradient id="SVGID_4_" gradientUnits="userSpaceOnUse" x1="4570.2163" y1="-4208.9385" x2="4604.6924" y2="-4208.9385" gradientTransform="matrix(0.7071 -0.7071 0.9902 0.424 964.8148 5096.3511)">
			<stop  offset="0.111" style="stop-color:#FFEDBA"/>
			<stop  offset="0.6371" style="stop-color:#A29258"/>
			<stop  offset="0.9805" style="stop-color:#554700"/>
		</linearGradient>
		<path class="st4" d="M25.8,78.7c1.5,0.9,3.2,1.7,5,2.3c6.1,2.1,13.6,2.8,20.1,1.5c0.4-0.1,0.7-0.1,1.1-0.2
			c0.7-0.9,1.2-1.8,1.8-2.7c4.4-7,3.8-17,3.7-16.9c0,0,0,0.1,0,0.2c0.2,2.6,0,4.9-0.8,6.7c-0.1,0.2-0.2,0.5-0.3,0.7
			c-0.2,0.4-0.5,0.7-0.8,1c-1.9,1.9-5.6,3-9.8,3.2c-3.9,0.2-8.2-0.2-11.8-1.6c-3.9-1.5-6.9-4-7.3-7.6c-0.6-5.9,16.8-12.6,17.9-13.1
			c0,0,0,0,0,0c-1,0.1-14,2-21.1,7.9c-1.4,1.1-2.5,2.4-3.3,3.9c-0.7,1.3-1.1,2.7-1.2,4.2C18.8,72.6,21.5,76.1,25.8,78.7z"/>
	</g>
</g>
<path class="st5" d="M65.2,0c0.1,0,0.2,0.1,0.2,0.1c3,0.3,6,2.6,6.9,6c1,4.2-1.5,8.4-5.7,9.6c-4.6,1.2-9.1-1.7-9.9-6.3
	c-0.8-4.2,2-8.2,6.1-9.2c0.3-0.1,0.6-0.1,0.8-0.1c0.1,0,0.2-0.1,0.3-0.1C64.4,0,64.8,0,65.2,0z"/>
<g class="st6">
	<path class="st5" d="M86.4,101.5c0,1.1-0.3,2-1,2.8c-0.9,1-2.3,1.5-4.2,1.5h-6.3V90.7h5.8c2.8,0,4.2,1.3,4.2,3.9
		c0,0.8-0.2,1.4-0.5,2c-0.3,0.5-0.7,0.8-1.2,1.2c1.2,0.3,2,0.7,2.5,1.4C86.2,99.9,86.4,100.7,86.4,101.5z M81.3,95.2
		c0-0.7-0.3-1.1-0.9-1.4c-0.2-0.1-0.5-0.1-0.9-0.1h-0.7v3h0.7c0.7,0,1.2-0.2,1.5-0.5C81.2,95.9,81.3,95.6,81.3,95.2z M82.4,101.3
		c0-0.9-0.5-1.4-1.4-1.5c-0.3,0-0.8-0.1-1.5-0.1h-0.8v3.2h0.9c1,0,1.7-0.1,2.1-0.4C82.2,102.2,82.4,101.8,82.4,101.3z"/>
	<path class="st5" d="M97.5,105.8h-8.6V90.7h8.6V94h-4.7v2.6h4.4v3.3h-4.4v2.7h4.7V105.8z"/>
	<path class="st5" d="M113.1,90.7l-5.7,7.8v7.3h-3.9v-7.3l-5.5-7.8h4.7l2.9,4.1l2.7-4.1H113.1z"/>
	<path class="st5" d="M130.5,98.3c0,2-0.7,3.8-2,5.4c-1.6,1.8-3.7,2.6-6.3,2.6c-2.6,0-4.7-0.9-6.3-2.6c-1.4-1.5-2-3.3-2-5.4
		c0-0.9,0.2-1.9,0.6-2.9c0.4-1,0.9-1.8,1.5-2.5c1.6-1.8,3.7-2.6,6.3-2.6c2.7,0,4.8,0.9,6.3,2.6C129.8,94.5,130.5,96.3,130.5,98.3z
		 M126.4,98.3c0-1.1-0.3-2-1-2.8c-0.9-1-2-1.5-3.3-1.5c-0.9,0-1.7,0.3-2.5,0.8s-1.3,1.2-1.6,2c-0.2,0.5-0.3,1-0.3,1.5
		c0,1,0.3,1.9,1,2.7c0.8,1,1.9,1.5,3.3,1.5c1.3,0,2.4-0.5,3.3-1.5C126.1,100.3,126.4,99.4,126.4,98.3z"/>
	<path class="st5" d="M148.1,105.8h-3.9l-7.2-9.2v9.2H133V90.7h3.9l7.2,9.2v-9.2h3.9V105.8z"/>
	<path class="st5" d="M164.5,98.3c0,1.6-0.5,3-1.4,4.4c-0.9,1.3-2.2,2.3-3.6,2.8c-0.8,0.3-1.6,0.4-2.4,0.4h-5.8V90.7h5.8
		c1.4,0,2.7,0.4,3.9,1.2c1.2,0.8,2.1,1.8,2.7,3.1C164.2,96.1,164.5,97.2,164.5,98.3z M160.4,98.3c0-1-0.3-2-0.9-2.7
		c-0.8-1-1.9-1.5-3.5-1.5h-0.9v8.5h0.9c1.5,0,2.7-0.5,3.5-1.5C160.1,100.2,160.4,99.3,160.4,98.3z"/>
</g>
<linearGradient id="SVGID_5_" gradientUnits="userSpaceOnUse" x1="-1481.3162" y1="4320.1934" x2="-1427.3435" y2="4320.1934" gradientTransform="matrix(1 0 0 -0.5724 1650.3435 2572.5356)">
	<stop  offset="0.111" style="stop-color:#FFEDBA"/>
	<stop  offset="0.6371" style="stop-color:#A29258"/>
	<stop  offset="0.9805" style="stop-color:#554700"/>
</linearGradient>
<rect x="169" y="98.4" class="st7" width="54" height="2.5"/>
<linearGradient id="SVGID_6_" gradientUnits="userSpaceOnUse" x1="8853.9375" y1="-3809.4626" x2="8922.4805" y2="-3809.4626" gradientTransform="matrix(-1 0 0 0.5724 8922.4805 2280.1934)">
	<stop  offset="0.111" style="stop-color:#FFEDBA"/>
	<stop  offset="0.6371" style="stop-color:#A29258"/>
	<stop  offset="0.9805" style="stop-color:#554700"/>
</linearGradient>
<polygon class="st8" points="68.5,100.9 0,100.9 0,98.4 68.5,98.4 "/>
<g>
	<path class="st5" d="M89.6,80.5c-2-1.2-3.4-2.9-4.3-5.3c-0.8-2.4-0.9-5.2-0.1-8.6c0.7-3.3,2.1-6.2,4-8.6c1.9-2.4,4.2-4.3,6.8-5.6
		c2.6-1.3,5.2-1.9,8-1.9c1.9,0,3.7,0.4,5.2,1.1c1.5,0.8,2.7,1.7,3.7,2.9l-5.5,5.2c-0.7-0.8-1.4-1.3-2.1-1.7
		c-0.7-0.4-1.6-0.6-2.6-0.6c-1.2,0-2.4,0.4-3.7,1.1c-1.2,0.7-2.3,1.8-3.2,3.1c-0.9,1.3-1.6,2.9-2,4.7c-0.6,2.8-0.5,5,0.4,6.6
		c0.9,1.6,2.3,2.4,4.4,2.4c2.1,0,4.2-0.9,6.3-2.6l3.2,5.1c-1.7,1.5-3.5,2.6-5.4,3.4c-1.9,0.8-3.9,1.1-6,1.1
		C94,82.3,91.6,81.7,89.6,80.5z"/>
	<path class="st5" d="M117.4,80.4c-1.9-1.3-3.2-3.1-3.9-5.5c-0.7-2.4-0.6-5.3,0.1-8.6c0.7-3.3,2-6.1,3.7-8.5
		c1.7-2.4,3.9-4.2,6.3-5.4c2.5-1.2,5.2-1.8,8.1-1.8c2.9,0,5.3,0.6,7.3,1.9c1.9,1.2,3.2,3,3.9,5.4c0.7,2.4,0.7,5.2-0.1,8.5
		c-0.7,3.3-2,6.2-3.7,8.6c-1.8,2.4-3.9,4.3-6.4,5.5c-2.5,1.3-5.2,1.9-8.1,1.9C121.8,82.3,119.3,81.7,117.4,80.4z M131.2,72.9
		c1.5-1.6,2.5-3.8,3.1-6.6c0.6-2.8,0.6-4.9-0.2-6.5c-0.7-1.5-2.1-2.3-4-2.3s-3.6,0.8-5,2.3c-1.4,1.5-2.4,3.7-3.1,6.5
		c-0.6,2.8-0.6,5,0.2,6.6c0.7,1.6,2,2.4,3.9,2.4C128.1,75.3,129.7,74.5,131.2,72.9z"/>
	<path class="st5" d="M148.8,78.5c-1.6-2.5-1.8-6.4-0.6-11.6l3.5-15.8h8.3l-3.7,16.8c-0.6,2.7-0.7,4.6-0.2,5.7
		c0.5,1.1,1.6,1.7,3.3,1.7c1.7,0,3-0.6,4.1-1.7c1-1.1,1.8-3.1,2.4-5.7l3.7-16.8h8L174.1,67c-1.2,5.2-3.1,9.1-5.7,11.6
		c-2.7,2.5-6.2,3.7-10.6,3.7C153.3,82.3,150.3,81.1,148.8,78.5z"/>
	<path class="st5" d="M189.4,57.9h-8.3l1.5-6.8h25l-1.5,6.8h-8.3l-5.3,23.8h-8.3L189.4,57.9z"/>
</g>
</svg>
